<svg width="260" height="80" viewBox="0 0 260 80" fill="none" xmlns="http://www.w3.org/2000/svg" role="img" aria-label="Wild Hearts Collective">
  <g stroke="#3B1F38" stroke-width="1.6" stroke-linecap="round" stroke-linejoin="round" fill="none">
    <circle cx="218" cy="14.5" r="3.2"/>
    <path d="M218 17.8C216.5 22.5 214.5 26.5 212 31C209.5 35.5 208 40 207 45"/>
    <path d="M218 17.8C220.5 15.5 223.5 12.5 227 11C229.5 10 231.5 11.5 230.5 14C229.5 16.5 226.5 19 223 21"/>
    <path d="M212 31C215 33.5 217.5 37 218.5 41.5"/>
    <path d="M207 45C206 51 205.5 57 206 63C206.5 68 208 72.5 209.5 75.5"/>
    <path d="M208 40C211.5 37 215 34.5 219 33.5C223 32.5 226.5 34 228.5 37.5"/>
    <path d="M228.5 37.5C230 40 230.5 43.5 229.5 47C228.5 50.5 225.5 53 222 54"/>
    <path d="M209.5 75.5L207 78.5"/>
  </g>
  <text x="4" y="28" font-family="Georgia, serif" font-size="28" font-style="italic" fill="#3B1F38">Wild</text>
  <text x="4" y="56" font-family="Georgia, serif" font-size="28" font-style="italic" fill="#3B1F38">Hearts</text>
  <text x="76" y="72" font-family="Georgia, serif" font-size="11" font-style="italic" fill="#6B5B68">collective</text>
</svg>
