<?xml version="1.0" encoding="UTF-8"?>
<svg xmlns="http://www.w3.org/2000/svg" width="800" height="600" viewBox="0 0 800 600" role="img" aria-label="Aerial Rope">
  <defs>
    <linearGradient id="bg-aerial-rope-corde-lisse" x1="0%" y1="0%" x2="100%" y2="100%">
      <stop offset="0%" stop-color="#ebe4da"/>
      <stop offset="100%" stop-color="#eef2ec"/>
    </linearGradient>
    <linearGradient id="sheen-aerial-rope-corde-lisse" x1="0%" y1="0%" x2="0%" y2="100%">
      <stop offset="0%" stop-color="#ffffff" stop-opacity="0.4"/>
      <stop offset="60%" stop-color="#ffffff" stop-opacity="0"/>
    </linearGradient>
    <filter id="soft-aerial-rope-corde-lisse" x="-20%" y="-20%" width="140%" height="140%">
      <feDropShadow dx="0" dy="12" stdDeviation="16" flood-color="#4a433c" flood-opacity="0.16"/>
    </filter>
  </defs>
  <rect width="800" height="600" fill="url(#bg-aerial-rope-corde-lisse)"/>
  <rect width="800" height="600" fill="url(#sheen-aerial-rope-corde-lisse)"/>
  <circle cx="700" cy="60" r="140" fill="#6b5f54" fill-opacity="0.14"/>
  <circle cx="40" cy="540" r="110" fill="#6b5f54" fill-opacity="0.1"/>
  <g filter="url(#soft-aerial-rope-corde-lisse)" transform="translate(0, 40)">
    <path d="M400 40 Q385 120 400 200 Q415 280 400 360" fill="none" stroke="#6b5f54" stroke-width="28" stroke-linecap="round"/>
      <path d="M400 40 Q415 120 400 200 Q385 280 400 360" fill="none" stroke="#8a8178" stroke-width="10" stroke-linecap="round" opacity="0.55"/>
      <ellipse cx="400" cy="40" rx="22" ry="12" fill="#4a433c"/>
      <ellipse cx="400" cy="370" rx="70" ry="12" fill="#4a433c" fill-opacity="0.12"/>
      <circle cx="400" cy="140" r="6" fill="#d58a94" opacity="0.7"/><circle cx="400" cy="220" r="6" fill="#d58a94" opacity="0.7"/><circle cx="400" cy="300" r="6" fill="#d58a94" opacity="0.7"/>
  </g>
</svg>