<?xml version="1.0" encoding="UTF-8"?>
<svg xmlns="http://www.w3.org/2000/svg" width="800" height="600" viewBox="0 0 800 600" role="img" aria-label="Aerial Chains">
  <defs>
    <linearGradient id="bg-aerial-chains" x1="0%" y1="0%" x2="100%" y2="100%">
      <stop offset="0%" stop-color="#f8f5f0"/>
      <stop offset="100%" stop-color="#ebe4da"/>
    </linearGradient>
    <linearGradient id="sheen-aerial-chains" x1="0%" y1="0%" x2="0%" y2="100%">
      <stop offset="0%" stop-color="#ffffff" stop-opacity="0.4"/>
      <stop offset="60%" stop-color="#ffffff" stop-opacity="0"/>
    </linearGradient>
    <filter id="soft-aerial-chains" x="-20%" y="-20%" width="140%" height="140%">
      <feDropShadow dx="0" dy="12" stdDeviation="16" flood-color="#4a433c" flood-opacity="0.16"/>
    </filter>
  </defs>
  <rect width="800" height="600" fill="url(#bg-aerial-chains)"/>
  <rect width="800" height="600" fill="url(#sheen-aerial-chains)"/>
  <circle cx="700" cy="60" r="140" fill="#8a9a85" fill-opacity="0.14"/>
  <circle cx="40" cy="540" r="110" fill="#8a9a85" fill-opacity="0.1"/>
  <g filter="url(#soft-aerial-chains)" transform="translate(0, 40)">
    <g stroke="#6b5f54" stroke-width="10" fill="none" stroke-linecap="round">
        <ellipse cx="370" cy="70" rx="22" ry="28"/><ellipse cx="370" cy="120" rx="22" ry="28"/><ellipse cx="370" cy="170" rx="22" ry="28"/>
        <ellipse cx="370" cy="220" rx="22" ry="28"/><ellipse cx="370" cy="270" rx="22" ry="28"/><ellipse cx="370" cy="320" rx="22" ry="28"/>
        <ellipse cx="430" cy="95" rx="22" ry="28"/><ellipse cx="430" cy="145" rx="22" ry="28"/><ellipse cx="430" cy="195" rx="22" ry="28"/>
        <ellipse cx="430" cy="245" rx="22" ry="28"/><ellipse cx="430" cy="295" rx="22" ry="28"/>
      </g>
      <ellipse cx="400" cy="360" rx="90" ry="12" fill="#4a433c" fill-opacity="0.1"/>
  </g>
</svg>