<?xml version="1.0" encoding="UTF-8"?>
<svg xmlns="http://www.w3.org/2000/svg" width="800" height="600" viewBox="0 0 800 600" role="img" aria-label="Pole Shorts">
  <defs>
    <linearGradient id="bg-high-grip-pole-shorts" x1="0%" y1="0%" x2="100%" y2="100%">
      <stop offset="0%" stop-color="#f5e6e9"/>
      <stop offset="100%" stop-color="#f8f5f0"/>
    </linearGradient>
    <linearGradient id="sheen-high-grip-pole-shorts" x1="0%" y1="0%" x2="0%" y2="100%">
      <stop offset="0%" stop-color="#ffffff" stop-opacity="0.4"/>
      <stop offset="60%" stop-color="#ffffff" stop-opacity="0"/>
    </linearGradient>
    <filter id="soft-high-grip-pole-shorts" x="-20%" y="-20%" width="140%" height="140%">
      <feDropShadow dx="0" dy="12" stdDeviation="16" flood-color="#4a433c" flood-opacity="0.16"/>
    </filter>
  </defs>
  <rect width="800" height="600" fill="url(#bg-high-grip-pole-shorts)"/>
  <rect width="800" height="600" fill="url(#sheen-high-grip-pole-shorts)"/>
  <circle cx="700" cy="60" r="140" fill="#d58a94" fill-opacity="0.14"/>
  <circle cx="40" cy="540" r="110" fill="#d58a94" fill-opacity="0.1"/>
  <g filter="url(#soft-high-grip-pole-shorts)" transform="translate(0, 40)">
    <path d="M300 90 L335 90 L348 160 L360 300 L295 300 L302 160 Z" fill="#4a433c"/>
      <path d="M455 90 L500 90 L505 160 L512 300 L445 300 L455 160 Z" fill="#4a433c"/>
      <path d="M335 90 L455 90 L462 155 L328 155 Z" fill="#4a433c"/>
      <path d="M330 155 L460 155 L464 185 L326 185 Z" fill="#d58a94" opacity="0.55"/>
  </g>
</svg>