<?xml version="1.0" encoding="UTF-8"?>
<svg xmlns="http://www.w3.org/2000/svg" width="800" height="600" viewBox="0 0 800 600" role="img" aria-label="Rosin Sock">
  <defs>
    <linearGradient id="bg-rosin-sock" x1="0%" y1="0%" x2="100%" y2="100%">
      <stop offset="0%" stop-color="#f5e6e9"/>
      <stop offset="100%" stop-color="#f8f5f0"/>
    </linearGradient>
    <linearGradient id="sheen-rosin-sock" x1="0%" y1="0%" x2="0%" y2="100%">
      <stop offset="0%" stop-color="#ffffff" stop-opacity="0.4"/>
      <stop offset="60%" stop-color="#ffffff" stop-opacity="0"/>
    </linearGradient>
    <filter id="soft-rosin-sock" x="-20%" y="-20%" width="140%" height="140%">
      <feDropShadow dx="0" dy="12" stdDeviation="16" flood-color="#4a433c" flood-opacity="0.16"/>
    </filter>
  </defs>
  <rect width="800" height="600" fill="url(#bg-rosin-sock)"/>
  <rect width="800" height="600" fill="url(#sheen-rosin-sock)"/>
  <circle cx="700" cy="60" r="140" fill="#d58a94" fill-opacity="0.14"/>
  <circle cx="40" cy="540" r="110" fill="#d58a94" fill-opacity="0.1"/>
  <g filter="url(#soft-rosin-sock)" transform="translate(0, 40)">
    <ellipse cx="400" cy="280" rx="90" ry="40" fill="#d58a94" opacity="0.35"/>
      <path d="M340 120 Q330 200 350 270 Q380 300 400 300 Q420 300 450 270 Q470 200 460 120 Q430 90 400 90 Q370 90 340 120Z" fill="#e8dcc8" stroke="#c4b5a0" stroke-width="3"/>
      <ellipse cx="400" cy="150" rx="45" ry="55" fill="#f5e6e9" opacity="0.7"/>
      <circle cx="385" cy="200" r="8" fill="#d58a94" opacity="0.5"/><circle cx="410" cy="220" r="6" fill="#d58a94" opacity="0.4"/><circle cx="395" cy="240" r="5" fill="#d58a94" opacity="0.45"/>
      <text x="400" y="355" text-anchor="middle" fill="#8a8178" font-family="Helvetica, Arial, sans-serif" font-size="14" font-weight="700" letter-spacing="2">ROSIN</text>
  </g>
</svg>