<?xml version="1.0" encoding="UTF-8"?>
<svg xmlns="http://www.w3.org/2000/svg" width="800" height="600" viewBox="0 0 800 600" role="img" aria-label="Goggles">
  <defs>
    <linearGradient id="bg-safety-goggles" x1="0%" y1="0%" x2="100%" y2="100%">
      <stop offset="0%" stop-color="#f8f5f0"/>
      <stop offset="100%" stop-color="#eef2ec"/>
    </linearGradient>
    <linearGradient id="sheen-safety-goggles" x1="0%" y1="0%" x2="0%" y2="100%">
      <stop offset="0%" stop-color="#ffffff" stop-opacity="0.4"/>
      <stop offset="60%" stop-color="#ffffff" stop-opacity="0"/>
    </linearGradient>
    <filter id="soft-safety-goggles" x="-20%" y="-20%" width="140%" height="140%">
      <feDropShadow dx="0" dy="12" stdDeviation="16" flood-color="#4a433c" flood-opacity="0.16"/>
    </filter>
  </defs>
  <rect width="800" height="600" fill="url(#bg-safety-goggles)"/>
  <rect width="800" height="600" fill="url(#sheen-safety-goggles)"/>
  <circle cx="700" cy="60" r="140" fill="#8a9a85" fill-opacity="0.14"/>
  <circle cx="40" cy="540" r="110" fill="#8a9a85" fill-opacity="0.1"/>
  <g filter="url(#soft-safety-goggles)" transform="translate(0, 40)">
    <path d="M240 170 Q275 135 345 140 L385 140 Q400 140 400 170 Q400 140 415 140 L455 140 Q525 135 560 170 Q575 210 535 235 L455 242 Q400 250 345 242 L265 235 Q225 210 240 170Z" fill="#fffcf9" stroke="#6b5f54" stroke-width="9"/>
      <circle cx="340" cy="190" r="48" fill="#c5d4e8" fill-opacity="0.55" stroke="#6b5f54" stroke-width="5"/>
      <circle cx="460" cy="190" r="48" fill="#c5d4e8" fill-opacity="0.55" stroke="#6b5f54" stroke-width="5"/>
      <rect x="380" y="178" width="40" height="24" rx="7" fill="#6b5f54"/>
  </g>
</svg>