<?xml version="1.0" encoding="UTF-8"?>
<svg xmlns="http://www.w3.org/2000/svg" width="800" height="600" viewBox="0 0 800 600" role="img" aria-label="Sports Bra">
  <defs>
    <linearGradient id="bg-sports-bra" x1="0%" y1="0%" x2="100%" y2="100%">
      <stop offset="0%" stop-color="#eef2ec"/>
      <stop offset="100%" stop-color="#f5e6e9"/>
    </linearGradient>
    <linearGradient id="sheen-sports-bra" x1="0%" y1="0%" x2="0%" y2="100%">
      <stop offset="0%" stop-color="#ffffff" stop-opacity="0.4"/>
      <stop offset="60%" stop-color="#ffffff" stop-opacity="0"/>
    </linearGradient>
    <filter id="soft-sports-bra" x="-20%" y="-20%" width="140%" height="140%">
      <feDropShadow dx="0" dy="12" stdDeviation="16" flood-color="#4a433c" flood-opacity="0.16"/>
    </filter>
  </defs>
  <rect width="800" height="600" fill="url(#bg-sports-bra)"/>
  <rect width="800" height="600" fill="url(#sheen-sports-bra)"/>
  <circle cx="700" cy="60" r="140" fill="#8a9a85" fill-opacity="0.14"/>
  <circle cx="40" cy="540" r="110" fill="#8a9a85" fill-opacity="0.1"/>
  <g filter="url(#soft-sports-bra)" transform="translate(0, 40)">
    <path d="M290 130 C290 85 340 75 400 75 C460 75 510 85 510 130 L498 260 C485 295 420 305 400 305 C380 305 315 295 302 260 Z" fill="#6b5f54"/>
      <path d="M320 105 C360 145 440 145 480 105" fill="none" stroke="#d58a94" stroke-width="10" stroke-linecap="round"/>
      <path d="M340 200 Q400 235 460 200" fill="none" stroke="#8a9a85" stroke-width="7" stroke-linecap="round"/>
  </g>
</svg>