<?xml version="1.0" encoding="UTF-8"?>
<svg xmlns="http://www.w3.org/2000/svg" width="800" height="600" viewBox="0 0 800 600" role="img" aria-label="Hoodie">
  <defs>
    <linearGradient id="bg-studio-lifestyle-hoodie" x1="0%" y1="0%" x2="100%" y2="100%">
      <stop offset="0%" stop-color="#eef2ec"/>
      <stop offset="100%" stop-color="#f8f5f0"/>
    </linearGradient>
    <linearGradient id="sheen-studio-lifestyle-hoodie" x1="0%" y1="0%" x2="0%" y2="100%">
      <stop offset="0%" stop-color="#ffffff" stop-opacity="0.4"/>
      <stop offset="60%" stop-color="#ffffff" stop-opacity="0"/>
    </linearGradient>
    <filter id="soft-studio-lifestyle-hoodie" x="-20%" y="-20%" width="140%" height="140%">
      <feDropShadow dx="0" dy="12" stdDeviation="16" flood-color="#4a433c" flood-opacity="0.16"/>
    </filter>
  </defs>
  <rect width="800" height="600" fill="url(#bg-studio-lifestyle-hoodie)"/>
  <rect width="800" height="600" fill="url(#sheen-studio-lifestyle-hoodie)"/>
  <circle cx="700" cy="60" r="140" fill="#8a9a85" fill-opacity="0.14"/>
  <circle cx="40" cy="540" r="110" fill="#8a9a85" fill-opacity="0.1"/>
  <g filter="url(#soft-studio-lifestyle-hoodie)" transform="translate(0, 40)">
    <path d="M290 130 L335 105 L360 70 L440 70 L465 105 L510 130 L545 205 L490 230 L478 360 L322 360 L310 230 L255 205 Z" fill="#8a9a85"/>
      <path d="M360 70 Q400 35 440 70" fill="#758574"/>
      <circle cx="400" cy="200" r="40" fill="none" stroke="#f5e6e9" stroke-width="3.5"/>
      <text x="400" y="208" text-anchor="middle" fill="#f5e6e9" font-family="Georgia, serif" font-size="18">WH</text>
  </g>
</svg>