<?xml version="1.0" encoding="UTF-8"?>
<svg xmlns="http://www.w3.org/2000/svg" width="800" height="600" viewBox="0 0 800 600" role="img" aria-label="Apron">
  <defs>
    <linearGradient id="bg-workshop-canvas-apron" x1="0%" y1="0%" x2="100%" y2="100%">
      <stop offset="0%" stop-color="#f8f5f0"/>
      <stop offset="100%" stop-color="#ebe4da"/>
    </linearGradient>
    <linearGradient id="sheen-workshop-canvas-apron" x1="0%" y1="0%" x2="0%" y2="100%">
      <stop offset="0%" stop-color="#ffffff" stop-opacity="0.4"/>
      <stop offset="60%" stop-color="#ffffff" stop-opacity="0"/>
    </linearGradient>
    <filter id="soft-workshop-canvas-apron" x="-20%" y="-20%" width="140%" height="140%">
      <feDropShadow dx="0" dy="12" stdDeviation="16" flood-color="#4a433c" flood-opacity="0.16"/>
    </filter>
  </defs>
  <rect width="800" height="600" fill="url(#bg-workshop-canvas-apron)"/>
  <rect width="800" height="600" fill="url(#sheen-workshop-canvas-apron)"/>
  <circle cx="700" cy="60" r="140" fill="#8a9a85" fill-opacity="0.14"/>
  <circle cx="40" cy="540" r="110" fill="#8a9a85" fill-opacity="0.1"/>
  <g filter="url(#soft-workshop-canvas-apron)" transform="translate(0, 40)">
    <path d="M310 70 C310 70 350 45 400 45 C450 45 490 70 490 70 L515 340 C515 365 490 380 400 380 C310 380 285 365 285 340 Z" fill="#c4b5a0"/>
      <path d="M310 70 Q260 120 285 180" fill="none" stroke="#a89880" stroke-width="12" stroke-linecap="round"/>
      <path d="M490 70 Q540 120 515 180" fill="none" stroke="#a89880" stroke-width="12" stroke-linecap="round"/>
      <rect x="345" y="200" width="110" height="80" rx="8" fill="#ebe4da" stroke="#8a8178" stroke-width="2"/>
      <line x1="400" y1="200" x2="400" y2="280" stroke="#8a8178" stroke-width="2"/>
  </g>
</svg>